<svg width="164" height="23" viewBox="0 0 164 23" fill="none" xmlns="http://www.w3.org/2000/svg">
<path d="M31.6836 7.48828V15.7151L24.5523 11.6017" fill="white"/>
<path d="M16.9941 7.48828V15.7151L24.1254 11.6017" fill="white"/>
<path d="M16.8832 5.54639V1L1 9.82395V13.232L16.8832 22V17.4536L5.10587 11.5L16.8832 5.54639Z" fill="white" stroke="white"/>
<path d="M31.692 5.54639V1L47.5752 9.82395V13.232L31.692 22V17.4536L43.4693 11.5L31.692 5.54639Z" fill="white" stroke="white"/>
<path d="M61.3255 14.3534C61.3255 14.7586 61.2509 15.1111 61.1017 15.4114C60.9604 15.7111 60.7602 15.9587 60.5011 16.1543C60.2498 16.3569 59.9475 16.5032 59.5942 16.5932C59.2487 16.6903 58.8679 16.7395 58.4518 16.7395C58.1691 16.7395 57.9022 16.717 57.6509 16.672C57.4075 16.634 57.1798 16.582 56.9678 16.5144C56.7637 16.4469 56.5831 16.3716 56.426 16.2893C56.269 16.2141 56.1434 16.1388 56.0492 16.0642L56.638 15.0287C56.8265 15.1483 57.0503 15.2609 57.3094 15.3664C57.5763 15.479 57.91 15.5352 58.3105 15.5352C58.8051 15.5352 59.182 15.4262 59.4411 15.2088C59.7002 14.9908 59.8298 14.6798 59.8298 14.2739V13.9138H59.7827C59.6413 14.0939 59.4332 14.2289 59.1584 14.319C58.8836 14.402 58.5656 14.4435 58.2045 14.4435C57.8276 14.4435 57.4782 14.3872 57.1563 14.2739C56.8422 14.1614 56.5674 13.9926 56.3318 13.7675C56.0963 13.5353 55.9118 13.2427 55.7783 12.8896C55.6527 12.5371 55.5898 12.1242 55.5898 11.6515C55.5898 11.1563 55.6644 10.7173 55.8136 10.3346C55.9706 9.95197 56.1866 9.63331 56.4614 9.37796C56.744 9.11557 57.0777 8.92071 57.4625 8.79269C57.8551 8.65763 58.2908 8.5901 58.7698 8.5901C59.021 8.5901 59.2723 8.60135 59.5235 8.62386C59.7748 8.63934 60.0103 8.66185 60.2302 8.69139C60.4579 8.72164 60.666 8.75893 60.8544 8.80395C61.0428 8.84193 61.1999 8.88273 61.3255 8.92775V14.3534ZM58.4989 13.2722C58.7973 13.2722 59.0642 13.2089 59.2998 13.0809C59.5432 12.9536 59.7081 12.7622 59.7944 12.5069V9.97448C59.6845 9.92946 59.5275 9.89569 59.3233 9.87318C59.127 9.84364 58.9386 9.82816 58.758 9.82816C58.5382 9.82816 58.3301 9.86193 58.1338 9.92946C57.9454 9.99699 57.7765 10.106 57.6274 10.2559C57.486 10.3987 57.3722 10.5823 57.2858 10.8074C57.2073 11.0254 57.168 11.2878 57.168 11.5952C57.168 11.8653 57.2034 12.1059 57.274 12.3156C57.3447 12.5259 57.4428 12.7024 57.5685 12.8445C57.6941 12.9873 57.8354 13.0964 57.9925 13.1709C58.1495 13.2385 58.3183 13.2722 58.4989 13.2722ZM68.4346 13.7562C68.3325 13.8463 68.199 13.9363 68.0341 14.0263C67.8771 14.1093 67.6886 14.1881 67.4688 14.2627C67.2568 14.338 67.0213 14.3985 66.7622 14.4435C66.5031 14.4885 66.2282 14.511 65.9377 14.511C65.4352 14.511 64.9838 14.4435 64.5833 14.3077C64.1907 14.1727 63.857 13.9778 63.5822 13.7224C63.3074 13.4601 63.0954 13.1484 62.9462 12.7883C62.8049 12.4211 62.7343 12.0046 62.7343 11.5397C62.7343 11.0437 62.8167 10.6125 62.9816 10.2446C63.1465 9.86967 63.3702 9.55804 63.6529 9.31042C63.9434 9.06281 64.281 8.87921 64.6658 8.75892C65.0505 8.6316 65.4666 8.56829 65.9142 8.56829C66.2125 8.56829 66.5187 8.60557 66.8328 8.68014C67.1547 8.75541 67.4492 8.88695 67.7162 9.07407C67.9831 9.25415 68.199 9.49825 68.3638 9.80565C68.5366 10.1138 68.623 10.5035 68.623 10.9762C68.623 11.2991 68.5837 11.648 68.5052 12.0229H64.2653C64.2731 12.2635 64.3242 12.4661 64.4184 12.6307C64.5205 12.796 64.65 12.9311 64.8071 13.0359C64.972 13.1414 65.1565 13.2202 65.3606 13.2722C65.5726 13.3173 65.7964 13.3398 66.032 13.3398C66.5031 13.3398 66.8877 13.2877 67.1862 13.1822C67.4924 13.0774 67.7397 12.9501 67.9282 12.7995L68.4346 13.7562ZM65.8906 9.73812C65.6864 9.73812 65.4941 9.76485 65.3135 9.81691C65.1329 9.86967 64.968 9.94845 64.8189 10.0533C64.6775 10.151 64.5598 10.2749 64.4656 10.4247C64.3713 10.5752 64.3163 10.7441 64.3007 10.9312H67.1979C67.1979 10.564 67.088 10.2749 66.8682 10.0645C66.6562 9.84716 66.3303 9.73812 65.8906 9.73812ZM69.3486 8.72586H71.4097L71.5863 9.468H71.6334C71.814 9.22812 72.0731 9.01779 72.4108 8.83771C72.7484 8.65763 73.1527 8.56829 73.6238 8.56829C73.9144 8.56829 74.1853 8.60557 74.4365 8.68014C74.6956 8.75541 74.9155 8.87921 75.096 9.05156C75.2766 9.22461 75.4179 9.46096 75.52 9.76063C75.6299 10.0533 75.6849 10.4177 75.6849 10.8524V14.3534H74.1538V11.1563C74.1538 10.699 74.0439 10.3684 73.8241 10.1658C73.6121 9.96323 73.3412 9.86193 73.0114 9.86193C72.7209 9.86193 72.454 9.94494 72.2105 10.1095C71.975 10.2671 71.814 10.4662 71.7277 10.7061V14.3534H70.1966V9.96322H69.3486V8.72586ZM77.6354 9.96322H76.4694V8.72586H77.6354V7.44207L79.1665 7.02563V8.72586H82.2522V9.96322H79.1665V11.5727C79.1665 12.1509 79.2803 12.5709 79.5081 12.8333C79.7357 13.0886 80.0537 13.216 80.462 13.216C80.674 13.216 80.8664 13.1935 81.0391 13.1484C81.2118 13.0964 81.3649 13.0324 81.4985 12.9571C81.6398 12.8825 81.7654 12.7995 81.8753 12.7095C81.9931 12.6194 82.0991 12.5371 82.1933 12.4619L82.9 13.4748C82.7665 13.6254 82.5977 13.764 82.3936 13.8913C82.1972 14.0116 81.9813 14.1206 81.7458 14.2177C81.518 14.3077 81.2786 14.3795 81.0274 14.4322C80.7761 14.4843 80.5287 14.511 80.2854 14.511C79.406 14.511 78.7425 14.2782 78.295 13.8125C77.8552 13.3398 77.6354 12.5934 77.6354 11.5727V9.96322ZM88.3837 6.33906L89.5379 6.83429L85.3333 15.9292L84.1791 15.4114L88.3837 6.33906ZM96.6823 13.7562C96.5802 13.8463 96.4467 13.9363 96.2819 14.0263C96.1248 14.1093 95.9363 14.1881 95.7165 14.2627C95.5045 14.338 95.269 14.3985 95.0099 14.4435C94.7508 14.4885 94.4759 14.511 94.1855 14.511C93.6829 14.511 93.2315 14.4435 92.831 14.3077C92.4384 14.1727 92.1047 13.9778 91.8299 13.7224C91.5551 13.4601 91.3431 13.1484 91.194 12.7883C91.0526 12.4211 90.982 12.0046 90.982 11.5397C90.982 11.0437 91.0644 10.6125 91.2293 10.2446C91.3942 9.86967 91.618 9.55804 91.9006 9.31042C92.1911 9.06281 92.5287 8.87921 92.9135 8.75892C93.2982 8.6316 93.7144 8.56829 94.1619 8.56829C94.4602 8.56829 94.7665 8.60557 95.0805 8.68014C95.4024 8.75541 95.6969 8.88695 95.9639 9.07407C96.2308 9.25415 96.4467 9.49825 96.6116 9.80565C96.7843 10.1138 96.8707 10.5035 96.8707 10.9762C96.8707 11.2991 96.8314 11.648 96.753 12.0229H92.513C92.5208 12.2635 92.5719 12.4661 92.6661 12.6307C92.7682 12.796 92.8977 12.9311 93.0548 13.0359C93.2197 13.1414 93.4042 13.2202 93.6084 13.2722C93.8203 13.3173 94.0441 13.3398 94.2797 13.3398C94.7508 13.3398 95.1355 13.2877 95.4339 13.1822C95.7401 13.0774 95.9874 12.9501 96.1759 12.7995L96.6823 13.7562ZM94.1383 9.73812C93.9342 9.73812 93.7418 9.76485 93.5612 9.81691C93.3806 9.86967 93.2157 9.94845 93.0666 10.0533C92.9253 10.151 92.8075 10.2749 92.7133 10.4247C92.619 10.5752 92.5641 10.7441 92.5484 10.9312H95.4457C95.4457 10.564 95.3357 10.2749 95.1159 10.0645C94.9039 9.84716 94.578 9.73812 94.1383 9.73812ZM100.293 14.3534V10.9087C100.293 10.6836 100.278 10.5035 100.246 10.3684C100.215 10.2263 100.172 10.1173 100.117 10.042C100.07 9.95971 100.007 9.90695 99.9283 9.88444C99.8576 9.85489 99.783 9.83942 99.7045 9.83942C99.571 9.83942 99.4454 9.88092 99.3276 9.96322C99.2177 10.0462 99.1431 10.151 99.1038 10.2784V14.3534H97.6905V8.72586H98.8094L98.9743 9.34419H99.0096C99.1274 9.12683 99.3001 8.95026 99.5278 8.8152C99.7555 8.67311 100.022 8.60135 100.329 8.60135C100.588 8.60135 100.835 8.66185 101.071 8.78143C101.306 8.90172 101.467 9.11206 101.554 9.41172C101.671 9.14934 101.852 8.95026 102.095 8.8152C102.339 8.67311 102.602 8.60135 102.884 8.60135C103.096 8.60135 103.285 8.6316 103.45 8.69139C103.623 8.74415 103.772 8.84193 103.897 8.98403C104.023 9.12683 104.117 9.32168 104.18 9.5693C104.251 9.80987 104.286 10.1208 104.286 10.5035V14.3534H102.873V10.7511C102.873 10.4134 102.814 10.1771 102.696 10.042C102.586 9.90695 102.449 9.83942 102.284 9.83942C102.142 9.83942 102.021 9.87319 101.919 9.94072C101.817 10.0012 101.746 10.1025 101.707 10.2446V14.3534H100.293ZM105.577 9.10784C105.891 8.97277 106.252 8.8567 106.66 8.75892C107.077 8.66185 107.567 8.61261 108.133 8.61261C108.541 8.61261 108.886 8.66185 109.169 8.75892C109.46 8.84897 109.691 8.98051 109.864 9.15285C110.045 9.3259 110.174 9.53201 110.253 9.77189C110.331 10.0125 110.37 10.2826 110.37 10.5823C110.37 10.9649 110.355 11.2913 110.323 11.5615C110.3 11.8316 110.288 12.0722 110.288 12.2818C110.288 12.4394 110.296 12.6159 110.311 12.8108C110.327 12.9163 110.339 13.0176 110.347 13.1147H111.112V14.3534H109.157L109.004 13.5874H108.945C108.788 13.8202 108.564 14.0228 108.274 14.1952C107.983 14.3605 107.591 14.4435 107.096 14.4435C106.507 14.4435 106.04 14.2929 105.695 13.9926C105.349 13.6929 105.176 13.2948 105.176 12.7995C105.176 12.4844 105.235 12.2143 105.353 11.9892C105.479 11.757 105.655 11.5692 105.883 11.4264C106.119 11.2766 106.397 11.1675 106.719 11.1C107.049 11.0254 107.414 10.9874 107.815 10.9874C107.956 10.9874 108.105 10.9952 108.262 11.01C108.419 11.0254 108.612 11.0402 108.839 11.055C108.855 10.9804 108.863 10.9051 108.863 10.8299V10.616C108.863 10.3311 108.776 10.1285 108.604 10.0082C108.431 9.88092 108.176 9.81691 107.838 9.81691C107.438 9.81691 107.077 9.86615 106.755 9.96322C106.433 10.061 106.162 10.1588 105.942 10.2559L105.577 9.10784ZM107.591 13.2385C107.968 13.2385 108.25 13.1752 108.439 13.0471C108.627 12.9121 108.765 12.77 108.851 12.6194V11.9441C108.773 11.9294 108.655 11.9146 108.498 11.8991C108.341 11.8766 108.172 11.8653 107.991 11.8653C107.842 11.8653 107.693 11.8808 107.544 11.9104C107.395 11.9329 107.261 11.9744 107.143 12.0342C107.026 12.0869 106.931 12.158 106.861 12.248C106.79 12.3381 106.755 12.4471 106.755 12.5744C106.755 12.7848 106.817 12.9501 106.943 13.0697C107.077 13.1822 107.292 13.2385 107.591 13.2385ZM111.72 8.72586H113.781L113.958 9.468H114.005C114.186 9.22812 114.445 9.01779 114.782 8.83771C115.12 8.65763 115.524 8.56829 115.995 8.56829C116.286 8.56829 116.557 8.60557 116.808 8.68014C117.067 8.75541 117.287 8.87921 117.468 9.05156C117.648 9.22461 117.789 9.46096 117.892 9.76063C118.001 10.0533 118.056 10.4177 118.056 10.8524V14.3534H116.525V11.1563C116.525 10.699 116.416 10.3684 116.196 10.1658C115.984 9.96323 115.713 9.86193 115.383 9.86193C115.092 9.86193 114.826 9.94494 114.582 10.1095C114.347 10.2671 114.186 10.4662 114.099 10.7061V14.3534H112.568V9.96322H111.72V8.72586ZM121.48 7.98232H120.632L118.842 6.24902H120.774L121.48 7.98232ZM127.358 12.7995C127.358 12.6497 127.259 12.5294 127.063 12.4394C126.875 12.3493 126.639 12.267 126.357 12.1917C126.074 12.1172 125.763 12.0419 125.426 11.9666C125.088 11.8843 124.778 11.7753 124.496 11.6402C124.213 11.4981 123.973 11.3216 123.777 11.1113C123.589 10.8939 123.494 10.616 123.494 10.2784C123.494 10.0012 123.557 9.75712 123.683 9.54679C123.816 9.33716 123.993 9.16059 124.213 9.01779C124.441 8.86796 124.708 8.75541 125.014 8.68014C125.328 8.60557 125.666 8.56829 126.027 8.56829C126.411 8.56829 126.749 8.59431 127.04 8.64637C127.33 8.69913 127.582 8.76314 127.794 8.83771C128.013 8.91298 128.198 8.9995 128.347 9.09658C128.504 9.18662 128.637 9.26963 128.748 9.34419L128.1 10.3459C127.982 10.2784 127.844 10.2108 127.688 10.1433C127.538 10.0687 127.377 10.0012 127.205 9.94072C127.04 9.88092 126.863 9.83238 126.675 9.7944C126.494 9.75712 126.313 9.73812 126.133 9.73812C125.803 9.73812 125.536 9.77963 125.332 9.86193C125.128 9.94494 125.026 10.0723 125.026 10.2446C125.026 10.3797 125.12 10.4887 125.308 10.571C125.504 10.654 125.744 10.7328 126.027 10.8074C126.31 10.8749 126.62 10.9502 126.957 11.0325C127.295 11.1155 127.605 11.2238 127.888 11.3589C128.17 11.4869 128.406 11.6557 128.594 11.8653C128.79 12.0757 128.889 12.3458 128.889 12.6757C128.889 13.2462 128.669 13.6964 128.229 14.0263C127.797 14.3492 127.153 14.511 126.298 14.511C125.622 14.511 125.037 14.4168 124.543 14.2289C124.056 14.0341 123.663 13.809 123.365 13.5536L124.072 12.4956C124.174 12.5786 124.307 12.6722 124.472 12.777C124.645 12.8748 124.837 12.9648 125.049 13.0471C125.261 13.1301 125.485 13.2012 125.721 13.261C125.964 13.3137 126.204 13.3398 126.439 13.3398C126.69 13.3398 126.906 13.299 127.087 13.216C127.267 13.1337 127.358 12.9951 127.358 12.7995Z" fill="white"/>
<path d="M142.616 14.1518C142.292 14.3973 141.912 14.5835 141.477 14.7095C141.042 14.8289 140.587 14.8883 140.113 14.8883C139.599 14.8883 139.14 14.8126 138.737 14.6621C138.342 14.5123 138.005 14.3024 137.729 14.0332C137.46 13.7565 137.254 13.4243 137.112 13.0364C136.97 12.6493 136.898 12.2221 136.898 11.7556C136.898 11.2565 136.981 10.8138 137.148 10.4259C137.314 10.0387 137.543 9.71021 137.836 9.441C138.136 9.17253 138.488 8.9708 138.891 8.83583C139.295 8.69343 139.733 8.62298 140.208 8.62298C140.651 8.62298 141.066 8.67415 141.453 8.7765C141.841 8.87958 142.138 8.97822 142.343 9.07315V11.1616H141.038V10.0699C140.793 10.015 140.548 9.98684 140.303 9.98684C140.081 9.98684 139.86 10.0224 139.639 10.0936C139.425 10.1574 139.232 10.2642 139.057 10.414C138.891 10.5564 138.753 10.7388 138.642 10.9599C138.539 11.1816 138.488 11.4464 138.488 11.7556C138.488 12.0085 138.532 12.2414 138.618 12.455C138.705 12.6686 138.828 12.8547 138.986 13.0127C139.144 13.1714 139.338 13.2975 139.567 13.3924C139.805 13.4799 140.066 13.5229 140.35 13.5229C140.801 13.5229 141.169 13.4599 141.453 13.3331C141.746 13.207 141.963 13.0958 142.106 13.0008L142.616 14.1518ZM143.703 10.5564C143.703 9.83703 143.778 9.20813 143.928 8.6697C144.079 8.12386 144.288 7.67295 144.557 7.31697C144.833 6.96099 145.162 6.69622 145.541 6.52194C145.921 6.34024 146.344 6.24902 146.811 6.24902C147.807 6.24902 148.574 6.6013 149.112 7.30585C149.649 8.0015 149.918 9.08501 149.918 10.5564C149.918 11.2847 149.843 11.921 149.693 12.4668C149.542 13.0053 149.329 13.4562 149.052 13.8196C148.783 14.1756 148.456 14.4448 148.068 14.6265C147.688 14.8008 147.265 14.8883 146.799 14.8883C145.794 14.8883 145.028 14.5197 144.497 13.784C143.967 13.0409 143.703 11.9648 143.703 10.5564ZM148.4 10.5564C148.4 10.4303 148.396 10.3117 148.388 10.2004C148.388 10.0818 148.384 9.96755 148.376 9.85631L145.47 12.5024C145.716 13.2226 146.162 13.5823 146.811 13.5823C147.317 13.5823 147.708 13.3412 147.985 12.8584C148.261 12.3764 148.4 11.6088 148.4 10.5564ZM145.221 10.5564C145.221 10.6751 145.221 10.79 145.221 10.9005C145.229 11.0036 145.237 11.1104 145.245 11.2209L148.139 8.57478C147.902 7.8947 147.455 7.55429 146.799 7.55429C146.292 7.55429 145.901 7.79977 145.624 8.28999C145.355 8.77279 145.221 9.52851 145.221 10.5564ZM153.994 6.41515H156.474V11.5413C156.474 12.1346 156.505 12.7205 156.568 13.2975C156.568 13.3375 156.572 13.3768 156.58 13.4161H157.339V14.7221H155.43L155.275 13.962H155.228C155.149 14.1044 155.042 14.2312 154.908 14.3417C154.773 14.4529 154.623 14.5516 154.457 14.6383C154.291 14.7177 154.109 14.777 153.911 14.8171C153.713 14.8645 153.515 14.8883 153.318 14.8883C152.946 14.8883 152.595 14.8289 152.263 14.7095C151.938 14.5909 151.653 14.4092 151.408 14.1637C151.163 13.9108 150.97 13.5941 150.827 13.2144C150.685 12.8273 150.614 12.3719 150.614 11.8498C150.614 11.344 150.689 10.8931 150.839 10.4971C150.997 10.1018 151.211 9.76954 151.48 9.50033C151.756 9.2237 152.08 9.01382 152.452 8.87143C152.824 8.72162 153.231 8.64597 153.674 8.64597C153.919 8.64597 154.149 8.66229 154.362 8.69343C154.583 8.71717 154.773 8.76092 154.931 8.82396V7.72042H153.994V6.41515ZM153.674 13.5823C153.974 13.5823 154.239 13.5111 154.469 13.3687C154.706 13.2189 154.86 13.0053 154.931 12.7279V10.2123C154.82 10.1255 154.666 10.0625 154.469 10.0224C154.279 9.97497 154.077 9.95124 153.864 9.95124C153.65 9.95124 153.441 9.98684 153.235 10.058C153.037 10.1292 152.859 10.2442 152.701 10.4021C152.551 10.5527 152.429 10.7507 152.334 10.9955C152.246 11.2409 152.203 11.5413 152.203 11.8973C152.203 12.4038 152.329 12.811 152.583 13.1195C152.836 13.428 153.2 13.5823 153.674 13.5823ZM163.811 14.0925C163.709 14.1874 163.574 14.2824 163.408 14.3773C163.25 14.4648 163.06 14.5479 162.838 14.6265C162.625 14.7058 162.387 14.7696 162.126 14.8171C161.865 14.8645 161.589 14.8883 161.296 14.8883C160.79 14.8883 160.335 14.8171 159.932 14.6739C159.537 14.5315 159.201 14.3261 158.924 14.0569C158.647 13.7803 158.434 13.4517 158.283 13.072C158.141 12.6849 158.07 12.2458 158.07 11.7556C158.07 11.2328 158.153 10.7782 158.319 10.3903C158.485 9.995 158.71 9.66645 158.995 9.4054C159.288 9.14434 159.628 8.95078 160.015 8.82396C160.403 8.68973 160.822 8.62298 161.272 8.62298C161.573 8.62298 161.882 8.66229 162.198 8.7409C162.522 8.82025 162.819 8.95894 163.087 9.15621C163.356 9.34607 163.574 9.60341 163.74 9.92751C163.914 10.2523 164.001 10.6632 164.001 11.1616C164.001 11.502 163.961 11.8698 163.882 12.2651H159.612C159.62 12.5188 159.671 12.7323 159.766 12.9059C159.869 13.0802 159.999 13.2226 160.157 13.3331C160.323 13.4443 160.51 13.5274 160.715 13.5823C160.928 13.6297 161.154 13.6535 161.391 13.6535C161.865 13.6535 162.253 13.5986 162.553 13.4873C162.862 13.3768 163.111 13.2426 163.301 13.0839L163.811 14.0925ZM161.249 9.85631C161.043 9.85631 160.85 9.88449 160.667 9.93937C160.486 9.99499 160.32 10.0781 160.169 10.1886C160.027 10.2916 159.908 10.4222 159.813 10.5801C159.718 10.7388 159.664 10.9168 159.647 11.1141H162.565C162.565 10.727 162.455 10.4222 162.233 10.2004C162.02 9.97127 161.692 9.85631 161.249 9.85631Z" fill="white"/>
</svg>
