<svg width="26" height="26" viewBox="0 0 26 26" fill="none" xmlns="http://www.w3.org/2000/svg">
<g clip-path="url(#clip0_490_31)">
<path d="M13 0C10.4288 0 7.91543 0.762437 5.77759 2.1909C3.63975 3.61935 1.97351 5.64968 0.989572 8.02512C0.00563266 10.4006 -0.251811 13.0144 0.249797 15.5362C0.751405 18.0579 1.98953 20.3743 3.80762 22.1924C5.6257 24.0105 7.94208 25.2486 10.4638 25.7502C12.9856 26.2518 15.5995 25.9944 17.9749 25.0104C20.3503 24.0265 22.3807 22.3603 23.8091 20.2224C25.2376 18.0846 26 15.5712 26 13C26 9.55219 24.6304 6.24559 22.1924 3.80761C19.7544 1.36964 16.4478 0 13 0ZM16.6982 8.46026C16.6982 8.70487 16.5955 8.80237 16.3561 8.80237C15.8959 8.80237 15.4358 8.80237 14.9774 8.82119C14.519 8.84 14.2692 9.04869 14.2692 9.52763C14.259 10.0408 14.2692 10.5437 14.2692 11.0671H16.238C16.5186 11.0671 16.6143 11.1629 16.6143 11.4451C16.6143 12.1293 16.6143 12.817 16.6143 13.508C16.6143 13.7868 16.5254 13.8741 16.2432 13.8758H14.2521V19.4418C14.2521 19.7395 14.1597 19.8336 13.8655 19.8336H11.724C11.4657 19.8336 11.3647 19.7326 11.3647 19.4743V13.8843H9.66448C9.39764 13.8843 9.30185 13.7868 9.30185 13.5183C9.30185 12.8261 9.30185 12.1345 9.30185 11.4434C9.30185 11.1766 9.40277 11.0757 9.66619 11.0757H11.3647V9.57895C11.3446 8.90664 11.5059 8.24132 11.8317 7.6529C12.1704 7.05884 12.7132 6.60787 13.3592 6.38368C13.7785 6.23113 14.2216 6.15467 14.6678 6.1579H16.3492C16.5904 6.1579 16.6913 6.26395 16.6913 6.5C16.6999 7.15855 16.6999 7.81026 16.6982 8.46026Z" fill="white"/>
</g>
<defs>
<clipPath id="clip0_490_31">
<rect width="26" height="26" fill="white"/>
</clipPath>
</defs>
</svg>
