<svg width="26" height="26" viewBox="0 0 26 26" fill="none" xmlns="http://www.w3.org/2000/svg">
<g clip-path="url(#clip0_490_35)">
<path d="M13 15.666C14.4724 15.666 15.666 14.4724 15.666 13C15.666 11.5276 14.4724 10.334 13 10.334C11.5276 10.334 10.334 11.5276 10.334 13C10.334 14.4724 11.5276 15.666 13 15.666Z" fill="white"/>
<path d="M13 0.304688C5.98858 0.304688 0.304688 5.98858 0.304688 13C0.304688 20.0114 5.98858 25.6953 13 25.6953C20.0114 25.6953 25.6953 20.0114 25.6953 13C25.6953 5.98858 20.0114 0.304688 13 0.304688ZM20.8436 16.2266C20.7826 17.4336 20.4435 18.6238 19.5639 19.4941C18.6758 20.3726 17.4799 20.6999 16.2613 20.7602H9.73873C8.51998 20.6999 7.32428 20.3728 6.43617 19.4941C5.55653 18.6238 5.21742 17.4336 5.15648 16.2266V9.77336C5.21742 8.56639 5.55659 7.37618 6.43617 6.50589C7.32428 5.62738 8.52013 5.30004 9.73873 5.23976H16.2613C17.48 5.30004 18.6757 5.62722 19.5638 6.50589C20.4435 7.37618 20.7826 8.56639 20.8435 9.77336L20.8436 16.2266Z" fill="white"/>
<path d="M16.1789 6.71041C14.5902 6.66684 11.4102 6.66684 9.82151 6.71041C8.99474 6.73311 8.05747 6.93893 7.4684 7.56811C6.85629 8.22212 6.62498 9.01227 6.60152 9.89622C6.56028 11.4477 6.60152 16.1043 6.60152 16.1043C6.62838 16.9882 6.85629 17.7784 7.4684 18.4325C8.05747 19.0618 8.99474 19.2674 9.82151 19.2901C11.4102 19.3337 14.5902 19.3337 16.1789 19.2901C17.0057 19.2674 17.943 19.0616 18.532 18.4325C19.1441 17.7784 19.3754 16.9883 19.3989 16.1043V9.89622C19.3754 9.01227 19.1441 8.22212 18.532 7.56811C17.9427 6.93872 17.0055 6.73311 16.1789 6.71041ZM13 17.1326C12.1827 17.1326 11.3838 16.8902 10.7042 16.4362C10.0247 15.9821 9.495 15.3367 9.18224 14.5817C8.86947 13.8266 8.78764 12.9957 8.94708 12.1941C9.10653 11.3925 9.5001 10.6562 10.078 10.0783C10.6559 9.50037 11.3922 9.1068 12.1938 8.94736C12.9954 8.78791 13.8263 8.86974 14.5814 9.18251C15.3365 9.49528 15.9818 10.0249 16.4359 10.7045C16.89 11.384 17.1323 12.183 17.1323 13.0003C17.1323 14.0962 16.697 15.1473 15.922 15.9223C15.147 16.6972 14.096 17.1326 13 17.1326ZM17.1499 9.72093C16.9865 9.72089 16.8267 9.67238 16.6908 9.58154C16.5549 9.49071 16.449 9.36162 16.3865 9.2106C16.324 9.05958 16.3076 8.89341 16.3395 8.7331C16.3715 8.5728 16.4502 8.42555 16.5658 8.30999C16.6814 8.19443 16.8286 8.11574 16.9889 8.08386C17.1493 8.05199 17.3154 8.06837 17.4664 8.13093C17.6174 8.19349 17.7465 8.29942 17.8373 8.43533C17.9281 8.57123 17.9766 8.73101 17.9766 8.89446C17.9766 9.00301 17.9552 9.1105 17.9136 9.21078C17.8721 9.31107 17.8112 9.40219 17.7344 9.47893C17.6577 9.55568 17.5665 9.61655 17.4662 9.65807C17.3659 9.6996 17.2585 9.72095 17.1499 9.72093Z" fill="white"/>
</g>
<defs>
<clipPath id="clip0_490_35">
<rect width="26" height="26" fill="white"/>
</clipPath>
</defs>
</svg>
