<svg width="14" height="19" viewBox="0 0 14 19" fill="none" xmlns="http://www.w3.org/2000/svg">
  <path d="M7 0.25C3.23828 0.25 0.25 3.30859 0.25 7C0.25 9.53125 1.05859 10.3047 5.55859 17.4766C6.22656 18.5312 7.73828 18.5312 8.40625 17.4766C12.9062 10.3047 13.75 9.53125 13.75 7C13.75 3.27344 10.6914 0.25 7 0.25ZM7 16.5625C2.5 9.39062 1.9375 8.93359 1.9375 7C1.9375 4.22266 4.1875 1.9375 7 1.9375C9.77734 1.9375 12.0625 4.22266 12.0625 7C12.0625 8.93359 11.5 9.32031 7 16.5625Z" fill="white" />
</svg>