<svg width="236" height="30" viewBox="0 0 236 30" fill="none" xmlns="http://www.w3.org/2000/svg">
<path d="M32.9061 2.90582C32.9061 1.17808 32.5134 1.17808 29.3721 0.942474V0.549805H50.2621L50.4977 7.3037H50.105C49.2412 3.69114 47.749 0.942474 44.215 0.942474H36.5186V15.3927H41.2307C43.9008 15.3927 45.393 14.0577 45.7857 10.6807H46.1783V20.4974H45.7857C45.393 17.199 43.9008 15.7854 41.2307 15.7854H36.5186V27.1728C36.5186 28.9006 36.9113 28.9006 40.0527 29.1362V29.5288H29.3721V29.1362C32.592 28.9006 32.9061 28.9006 32.9061 27.1728V2.90582Z" fill="#F5F1EE"/>
<path d="M64.0052 2.90582C64.0052 1.17808 63.6125 1.17808 60.4712 0.942474V0.549805H71.1519V0.942474C67.932 1.17808 67.6179 1.17808 67.6179 2.90582V19.1623C67.6179 25.5235 70.6806 29.0575 76.178 29.0575C81.5968 29.0575 85.0523 25.1309 85.0523 18.5341V2.90582C85.0523 1.17808 84.5026 1.17808 80.0261 0.942474V0.549805H89.4502V0.942474C85.9162 1.17808 85.5235 1.17808 85.5235 2.90582V18.377C85.5235 25.8377 81.4398 30 74.6859 30C67.3823 30 64.0838 25.5235 64.0838 18.377V2.90582H64.0052Z" fill="#F5F1EE"/>
<path d="M125.733 2.27729L115.681 29.7642H115.445L103.979 2.35581V27.1726C103.979 28.9003 104.607 28.9003 109.398 29.1359V29.5286H99.7383V29.1359C103.194 28.9003 103.586 28.9003 103.586 27.1726V2.82709C103.586 1.09934 103.194 1.09934 99.7383 0.863739V0.471069H107.042L117.016 24.3453L125.89 0.471069H132.723V0.863739C129.503 1.09934 129.188 1.09934 129.188 2.82709V27.1726C129.188 28.9003 129.581 28.9003 132.723 29.1359V29.5286H122.042V29.1359C125.262 28.9003 125.576 28.9003 125.576 27.1726L125.733 2.27729Z" fill="#F5F1EE"/>
<path d="M166.963 26.9369C167.513 28.3506 167.906 28.9788 170.262 29.2145V29.6071H159.66V29.2145C162.958 28.8218 163.665 28.5076 163.037 26.7013L160.445 19.4762H149.136L146.702 26.8584C146.073 28.8218 147.016 28.9003 151.492 29.293V29.6856H142.854V29.293C145.131 28.9003 145.681 28.6647 146.231 26.9369L155.105 0.471069H157.068L166.963 26.9369ZM149.372 19.005H160.288L154.712 3.21976H154.634L149.372 19.005Z" fill="#F5F1EE"/>
<path d="M176.78 0.549805H198.22L198.455 7.3037H198.063C197.199 3.53407 195.55 0.942474 192.251 0.942474H189.345V27.1728C189.345 28.9006 189.738 28.9006 192.88 29.1362V29.5288H182.199V29.1362C185.419 28.9006 185.733 28.9006 185.733 27.1728V0.942474H182.749C179.45 0.942474 177.801 3.53407 176.937 7.3037H176.544L176.78 0.549805Z" fill="#F5F1EE"/>
<path d="M229.868 28.0366C223.821 30.8638 216.989 27.0156 213.612 19.9475C210.235 12.801 211.806 5.10463 217.774 2.27741C220.209 1.17794 222.565 0.628203 224.764 0.706737C222.251 0.471135 219.738 0.863862 217.303 2.04187C209.999 5.49736 206.779 14.2146 210.235 21.5182C213.69 28.8219 222.408 32.0418 229.711 28.5863C232.224 27.4083 234.188 25.602 235.68 23.4816C234.345 25.2878 232.382 26.8586 229.868 28.0366Z" fill="#F5F1EE"/>
<path d="M3.14136 5.34034C3.14136 2.27752 5.4189 0.47128 8.79585 0.47128C12.4084 0.47128 15.4713 3.84824 16.5707 8.71734H16.9634L16.5707 1.88483C14.2932 0.62829 11.466 0 8.95288 0C3.29844 0 0 3.21991 0 7.3822C0 16.4921 14.9214 14.843 14.9214 23.2461C14.9214 29.3718 9.97384 29.6858 9.26704 29.8429C14.3717 29.5287 17.7487 26.466 17.7487 21.6754C17.7487 12.2514 3.14136 13.4293 3.14136 5.34034Z" fill="#F5F1EE"/>
</svg>
