<svg width="268" height="34" viewBox="0 0 268 34" fill="none" xmlns="http://www.w3.org/2000/svg">
<path d="M37.2933 3.2932C37.2933 1.33509 36.8483 1.33509 33.2881 1.06807V0.623047H56.9634L57.2305 8.27746H56.7854C55.8064 4.18323 54.1153 1.06807 50.1101 1.06807H41.3875V17.445H46.7278C49.754 17.445 51.4451 15.9319 51.8902 12.1047H52.3352V23.2304H51.8902C51.4451 19.4921 49.754 17.8901 46.7278 17.8901H41.3875V30.7958C41.3875 32.7539 41.8326 32.7539 45.3928 33.0209V33.4659H33.2881V33.0209C36.9373 32.7539 37.2933 32.7539 37.2933 30.7958V3.2932Z" fill="#4F4B49"/>
<path d="M72.5394 3.2932C72.5394 1.33509 72.0944 1.33509 68.5342 1.06807V0.623047H80.639V1.06807C76.9897 1.33509 76.6337 1.33509 76.6337 3.2932V21.7172C76.6337 28.9266 80.1048 32.9318 86.3352 32.9318C92.4765 32.9318 96.3928 28.4817 96.3928 21.0052V3.2932C96.3928 1.33509 95.7698 1.33509 90.6965 1.06807V0.623047H101.377V1.06807C97.3718 1.33509 96.9268 1.33509 96.9268 3.2932V20.8272C96.9268 29.2826 92.2986 33.9999 84.6442 33.9999C76.3667 33.9999 72.6285 28.9266 72.6285 20.8272V3.2932H72.5394Z" fill="#4F4B49"/>
<path d="M142.497 2.58123L131.105 33.733H130.838L117.843 2.67021V30.7959C117.843 32.754 118.555 32.754 123.984 33.021V33.4661H113.037V33.021C116.953 32.754 117.398 32.754 117.398 30.7959V3.20433C117.398 1.24622 116.953 1.24622 113.037 0.979205V0.53418H121.314L132.618 27.5916L142.675 0.53418H150.419V0.979205C146.77 1.24622 146.414 1.24622 146.414 3.20433V30.7959C146.414 32.754 146.859 32.754 150.419 33.021V33.4661H138.314V33.021C141.963 32.754 142.319 32.754 142.319 30.7959L142.497 2.58123Z" fill="#4F4B49"/>
<path d="M189.225 30.5288C189.848 32.1309 190.293 32.843 192.963 33.11V33.555H180.947V33.11C184.686 32.665 185.487 32.3089 184.775 30.2618L181.838 22.0734H169.021L166.262 30.4399C165.55 32.665 166.618 32.754 171.691 33.199V33.644H161.9V33.199C164.482 32.754 165.105 32.487 165.728 30.5288L175.785 0.53418H178.01L189.225 30.5288ZM169.288 21.5394H181.66L175.34 3.64936H175.251L169.288 21.5394Z" fill="#4F4B49"/>
<path d="M200.351 0.623047H224.649L224.916 8.27746H224.471C223.492 4.00522 221.623 1.06807 217.885 1.06807H214.591V30.7958C214.591 32.7539 215.036 32.7539 218.597 33.0209V33.4659H206.492V33.0209C210.141 32.7539 210.497 32.7539 210.497 30.7958V1.06807H207.115C203.377 1.06807 201.508 4.00522 200.529 8.27746H200.083L200.351 0.623047Z" fill="#4F4B49"/>
<path d="M260.518 31.7748C253.664 34.979 245.921 30.6177 242.094 22.6073C238.266 14.5078 240.047 5.78529 246.811 2.58111C249.57 1.33504 252.24 0.712004 254.732 0.801009C251.884 0.533994 249.036 0.979084 246.277 2.31416C238 6.23038 234.35 16.1099 238.267 24.3874C242.183 32.6648 252.062 36.314 260.34 32.3978C263.188 31.0627 265.413 29.0156 267.104 26.6125C265.591 28.6596 263.366 30.4397 260.518 31.7748Z" fill="#4F4B49"/>
<path d="M3.5602 6.05239C3.5602 2.58119 6.14142 0.534117 9.96863 0.534117C14.0629 0.534117 17.5341 4.36134 18.7802 9.87965H19.2252L18.7802 2.13614C16.199 0.712062 12.9948 0 10.1466 0C3.73823 0 0 3.64923 0 8.3665C0 18.6911 16.911 16.822 16.911 26.3456C16.911 33.288 11.3037 33.6439 10.5026 33.8219C16.288 33.4659 20.1152 29.9948 20.1152 24.5655C20.1152 13.8849 3.5602 15.2199 3.5602 6.05239Z" fill="#4F4B49"/>
</svg>
